<?xml version="1.0" encoding="utf-8"?>
<!-- Generator: Adobe Illustrator 26.0.2, SVG Export Plug-In . SVG Version: 6.00 Build 0)  -->
<svg version="1.1" id="레이어_1" xmlns="http://www.w3.org/2000/svg" xmlns:xlink="http://www.w3.org/1999/xlink" x="0px"
	 y="0px" viewBox="0 0 289.75 264.5" style="enable-background:new 0 0 289.75 264.5;" xml:space="preserve">
<style type="text/css">
	.st0{fill:#80CFD5;stroke:#80CFD5;stroke-width:3;stroke-miterlimit:10;}
	.st1{fill:#E6E6E6;}
	.st2{fill:#666666;stroke:#666666;stroke-width:2;stroke-miterlimit:10;}
	.st3{fill:#80CFD5;stroke:#80CFD5;stroke-width:1.5;stroke-miterlimit:10;}
	.st4{fill:#666666;stroke:#666666;stroke-width:1.5;stroke-miterlimit:10;}
</style>
<g>
	<circle class="st0" cx="143.6" cy="118.8" r="8.82"/>
	<path class="st0" d="M89.53,154.85l48.76-111.01c0.13-0.42,0.3-0.83,0.53-1.21l0.03-0.07l0,0c0.59-0.97,1.47-1.77,2.58-2.25
		l0.01-0.01c2.88-1.22,6.22,0.11,7.44,2.95l40.43,91.94V47.66c0-2.63,1.67-5.1,4.22-5.74c3.76-0.95,7.14,1.89,7.14,5.5v109.67
		c0,5.69-6.19,9.09-11.08,6.19c-1.63-0.97-7.93-17.09-8.07-17.4l-38.02-86.6L99.58,159.28c-1.22,2.78-4.46,4.03-7.24,2.81
		C89.57,160.87,88.31,157.63,89.53,154.85z"/>
</g>
<path class="st1" d="M206.84,190.57c0,4.31-27.74,7.8-61.97,7.8c-34.22,0-61.97-3.49-61.97-7.8c0-4.31,27.74-7.8,61.97-7.8
	C179.1,182.76,206.84,186.26,206.84,190.57z"/>
<path class="st0" d="M276.49,61.67c0,0-7.03-6.31-7.03-6.31C216.97,9.88,139.02-1.48,74.87,23.75
	c-23.22,9.04-44.61,22.77-62.5,39.92c-1.05,0.97-0.99,2.92,0.09,3.89c1.05,0.99,2.71,1.01,3.88-0.21
	C30.37,54.05,46.35,42.83,63.79,34.4c58.07-28.79,130.95-21.7,182.84,16.86c7.82,5.45,15.08,11.62,21.99,18.17
	c2.01,2.17,5.74,2.35,7.87,0.19C278.66,67.55,278.71,63.7,276.49,61.67z"/>
<g>
	<path class="st2" d="M97.28,218.54H84.29v-0.96h26.94v0.96H98.24v35.36h-0.96V218.54z"/>
	<path class="st2" d="M165.84,253.9l-12.49-18.29h-0.05l-12.85,18.29h-1.19l13.49-19.1l-12.03-17.22h1.19l11.39,16.36h0.05
		l12.03-16.36h1.23l-12.72,17.17l13.17,19.15H165.84z"/>
	<path class="st2" d="M205.45,217.58v36.32h-0.96v-36.32H205.45z"/>
	<g>
		<g>
			<path class="st2" d="M135.8,253.9h1.05l-14.13-36.32h-0.87l-14.27,36.32h1c0,0,13.31-33.84,13.67-35.05h0.05
				C122.81,220.62,135.8,253.9,135.8,253.9z"/>
		</g>
		<path class="st2" d="M123.86,238.7c0,0.91-0.74,1.65-1.65,1.65c-0.91,0-1.65-0.74-1.65-1.65c0-0.91,0.74-1.65,1.65-1.65
			C123.13,237.05,123.86,237.79,123.86,238.7z"/>
	</g>
	<g>
		<g>
			<path class="st2" d="M197.47,253.9h1.05l-14.13-36.32h-0.87l-14.27,36.32h1c0,0,13.31-33.84,13.67-35.05h0.05
				C184.48,220.62,197.47,253.9,197.47,253.9z"/>
		</g>
		<path class="st2" d="M185.54,238.7c0,0.91-0.74,1.65-1.65,1.65c-0.91,0-1.65-0.74-1.65-1.65c0-0.91,0.74-1.65,1.65-1.65
			C184.8,237.05,185.54,237.79,185.54,238.7z"/>
	</g>
</g>
</svg>
